<svg width="21" height="21" viewBox="0 0 21 21" fill="none" xmlns="http://www.w3.org/2000/svg">
<g clip-path="url(#clip0_3_1080)">
<path d="M1.3125 21H9.1875L10.5 11.8125H0L1.3125 21Z" fill="#5CC298"/>
<path d="M18.375 3.9375H15.0938H13.125L3.9375 6.5625H13.125L14.4375 10.563L13.125 21H14.4375L17.0625 13.125L19.6875 21H21L19.6875 10.6076L18.375 3.9375Z" fill="#5CC298"/>
<path d="M15.0938 3.9375C16.1811 3.9375 17.0625 3.05606 17.0625 1.96875C17.0625 0.881439 16.1811 0 15.0938 0C14.0064 0 13.125 0.881439 13.125 1.96875C13.125 3.05606 14.0064 3.9375 15.0938 3.9375Z" fill="#5CC298"/>
<path d="M3.9375 7.875L2.625 10.5H5.25V7.875H3.9375Z" fill="#5CC298"/>
</g>
<defs>
<clipPath id="clip0_3_1080">
<rect width="21" height="21" fill="white"/>
</clipPath>
</defs>
</svg>
