<svg width="30" height="30" viewBox="0 0 30 30" fill="none" xmlns="http://www.w3.org/2000/svg">
<g clip-path="url(#clip0_3_1094)">
<path d="M15 0C6.71631 0 0 6.71631 0 15C0 23.2837 6.71631 30 15 30C23.2855 30 30 23.2837 30 15C30 6.71631 23.2855 0 15 0ZM19.0905 20.7916C18.3526 21.6193 17.287 22.1064 15.8936 22.2529V24.375H14.1174V22.2638C11.7938 22.0258 10.3564 20.6745 9.80162 18.2135L12.5482 17.4976C12.8027 19.0448 13.645 19.8175 15.0751 19.8175C15.7434 19.8175 16.2378 19.6528 16.5527 19.3213C16.8677 18.9898 17.0251 18.5907 17.0251 18.1219C17.0251 17.6367 16.8676 17.2686 16.5527 17.0196C16.2378 16.7688 15.5365 16.452 14.4507 16.0675C13.4747 15.7288 12.7112 15.3954 12.1618 15.0623C11.6125 14.7327 11.1657 14.2695 10.8233 13.6743C10.4809 13.0774 10.3088 12.3816 10.3088 11.5905C10.3088 10.5523 10.6164 9.61664 11.228 8.78537C11.8396 7.95592 12.8027 7.44867 14.1175 7.26375V5.625H15.8936V7.26381C17.8785 7.50187 19.1639 8.6243 19.748 10.6329L17.3017 11.6364C16.8238 10.2594 16.0876 9.57094 15.0879 9.57094C14.5862 9.57094 14.1834 9.72475 13.8813 10.0324C13.5773 10.34 13.4254 10.7135 13.4254 11.1512C13.4254 11.5979 13.5718 11.9404 13.8648 12.1802C14.156 12.4183 14.784 12.7131 15.7435 13.0665C16.7982 13.451 17.6258 13.8154 18.2246 14.1578C18.8252 14.5002 19.3031 14.9745 19.662 15.5769C20.019 16.1811 20.1984 16.8861 20.1984 17.6936C20.1984 18.9331 19.8285 19.9658 19.0905 20.7916Z" fill="#24865E"/>
</g>
<defs>
<clipPath id="clip0_3_1094">
<rect width="30" height="30" fill="white"/>
</clipPath>
</defs>
</svg>
