<svg width="35" height="35" viewBox="0 0 35 35" fill="none" xmlns="http://www.w3.org/2000/svg">
<g clip-path="url(#clip0_3_931)">
<path d="M35 17.5C35 7.83402 27.166 0 17.5 0C7.83402 0 0 7.83402 0 17.5C0 26.2364 6.39844 33.4756 14.7656 34.7881V22.5586H10.3222V17.5H14.7656V13.6445C14.7656 9.25925 17.377 6.83594 21.376 6.83594C23.29 6.83594 25.293 7.17773 25.293 7.17773V11.4844H23.085C20.9111 11.4844 20.2344 12.8345 20.2344 14.2188V17.5H25.0879L24.312 22.5586H20.2344V34.7881C28.6016 33.4756 35 26.2364 35 17.5Z" fill="#1877F2"/>
<path d="M24.312 22.5586L25.0879 17.5H20.2344V14.2188C20.2344 12.8345 20.9111 11.4844 23.085 11.4844H25.293V7.17773C25.293 7.17773 23.29 6.83594 21.376 6.83594C17.377 6.83594 14.7656 9.25925 14.7656 13.6445V17.5H10.3222V22.5586H14.7656V34.7881C15.6577 34.9283 16.5703 35 17.5 35C18.4297 35 19.3423 34.9283 20.2344 34.7881V22.5586H24.312Z" fill="white"/>
</g>
<defs>
<clipPath id="clip0_3_931">
<rect width="35" height="35" fill="white"/>
</clipPath>
</defs>
</svg>
