<svg width="42" height="42" viewBox="0 0 42 42" fill="none" xmlns="http://www.w3.org/2000/svg">
<path d="M21.0075 40.9642C32.0433 40.9642 40.9896 32.0179 40.9896 20.9821C40.9896 9.94629 32.0433 1 21.0075 1C9.97168 1 1.02539 9.94629 1.02539 20.9821C1.02539 32.0179 9.97168 40.9642 21.0075 40.9642Z" fill="#EBF4FF"/>
<path d="M36.7335 8.6527C39.9563 12.7594 41.4457 17.9634 40.8837 23.1533C40.3216 28.3432 37.7527 33.1077 33.7254 36.4292C29.6982 39.7507 24.5318 41.366 19.3298 40.9301C14.1278 40.4941 9.30233 38.0415 5.88407 34.0961C2.46581 30.1506 0.725647 25.025 1.03523 19.8139C1.34481 14.6028 3.6796 9.71929 7.54096 6.20629C11.4023 2.69329 16.4842 0.82927 21.7013 1.01231C26.9183 1.19535 31.857 3.41095 35.4627 7.18593" stroke="#283D54" stroke-linecap="round" stroke-linejoin="round"/>
<path d="M11.2454 31.6108C11.8848 29.5203 13.1784 27.6902 14.9358 26.39C16.6932 25.0897 18.8216 24.3879 21.0077 24.3879C23.1938 24.3879 25.3222 25.0897 27.0796 26.39C28.837 27.6902 30.1306 29.5203 30.77 31.6108" stroke="#283D54" stroke-linecap="round" stroke-linejoin="round"/>
<path d="M33.7621 12.9042C33.7621 13.919 33.359 14.8922 32.6414 15.6098C31.9238 16.3274 30.9505 16.7305 29.9357 16.7305C28.9209 16.7305 27.9477 16.3274 27.2301 15.6098C26.5125 14.8922 26.1094 13.919 26.1094 12.9042" stroke="#283D54" stroke-linecap="round" stroke-linejoin="round"/>
<path d="M15.9056 12.9042C15.9056 13.919 15.5025 14.8922 14.7849 15.6098C14.0674 16.3274 13.0941 16.7305 12.0793 16.7305C11.0645 16.7305 10.0912 16.3274 9.37364 15.6098C8.65606 14.8922 8.25293 13.919 8.25293 12.9042" stroke="#283D54" stroke-linecap="round" stroke-linejoin="round"/>
<path d="M35.4628 21.9173C35.4628 21.9203 35.463 21.9232 35.4636 21.9262C35.4826 22.0357 35.4937 22.1465 35.4968 22.2576C35.4977 22.6718 35.3471 23.0721 35.0732 23.3828C34.7994 23.6936 34.4213 23.8935 34.0103 23.9447C33.5993 23.996 33.1837 23.8951 32.842 23.661C32.5194 23.4401 32.2836 23.115 32.1734 22.7413C32.1603 22.697 32.1414 22.6542 32.1315 22.6091C32.1231 22.5711 32.1213 22.5318 32.1152 22.4933C32.103 22.4153 32.0964 22.3366 32.0956 22.2576C32.0956 20.3336 34.5003 19.2518 35.2182 21.0369C35.3584 21.3856 35.4279 21.6917 35.4622 21.9095C35.4626 21.9121 35.4628 21.9146 35.4628 21.9173Z" fill="white"/>
<path d="M6.7969 21.0369C7.51477 19.2518 9.91952 20.3336 9.91952 22.2576C9.91868 22.3366 9.91211 22.4153 9.89988 22.4933C9.89384 22.5318 9.89197 22.5711 9.88361 22.6091C9.8737 22.6542 9.85477 22.697 9.84171 22.7413C9.7315 23.115 9.49572 23.4401 9.17312 23.661C8.83137 23.8951 8.4158 23.996 8.00478 23.9447C7.59377 23.8935 7.2157 23.6936 6.94188 23.3828C6.66805 23.0721 6.5174 22.6718 6.51831 22.2576C6.52141 22.1465 6.53252 22.0357 6.55155 21.9262C6.55206 21.9232 6.55233 21.9203 6.55233 21.9173C6.55233 21.9146 6.55251 21.9121 6.55292 21.9095C6.58715 21.6917 6.65666 21.3856 6.7969 21.0369Z" fill="white"/>
<path d="M35.4636 21.9262C35.463 21.9232 35.4628 21.9203 35.4628 21.9173V21.9173C35.4628 21.9146 35.4626 21.9121 35.4622 21.9095C35.4279 21.6917 35.3584 21.3856 35.2182 21.0369C34.5003 19.2518 32.0956 20.3336 32.0956 22.2576V22.2576C32.0964 22.3366 32.103 22.4153 32.1152 22.4933C32.1213 22.5318 32.1231 22.5711 32.1315 22.6091V22.6091C32.1414 22.6542 32.1603 22.697 32.1734 22.7413C32.2836 23.115 32.5194 23.4401 32.842 23.661C33.1837 23.8951 33.5993 23.996 34.0103 23.9447C34.4213 23.8935 34.7994 23.6936 35.0732 23.3828C35.3471 23.0721 35.4977 22.6718 35.4968 22.2576C35.4937 22.1465 35.4826 22.0357 35.4636 21.9262Z" stroke="#283D54" stroke-linecap="round" stroke-linejoin="round"/>
<path d="M6.55155 21.9262C6.55206 21.9232 6.55233 21.9203 6.55233 21.9173V21.9173C6.55233 21.9146 6.55251 21.9121 6.55292 21.9095C6.58715 21.6917 6.65666 21.3856 6.7969 21.0369C7.51477 19.2518 9.91952 20.3336 9.91952 22.2576V22.2576C9.91868 22.3366 9.91211 22.4153 9.89988 22.4933C9.89384 22.5318 9.89197 22.5711 9.88361 22.6091V22.6091C9.8737 22.6542 9.85477 22.697 9.84171 22.7413C9.7315 23.115 9.49572 23.4401 9.17312 23.661C8.83137 23.8951 8.4158 23.996 8.00478 23.9447C7.59377 23.8935 7.2157 23.6936 6.94188 23.3828C6.66805 23.0721 6.5174 22.6718 6.51831 22.2576C6.52141 22.1465 6.53252 22.0357 6.55155 21.9262Z" stroke="#283D54" stroke-linecap="round" stroke-linejoin="round"/>
</svg>
