<svg width="35" height="35" viewBox="0 0 35 35" fill="none" xmlns="http://www.w3.org/2000/svg">
<g clip-path="url(#clip0_3_924)">
<path d="M17.4984 34.7332C27.0278 34.7332 34.7529 27.008 34.7529 17.4786C34.7529 7.94914 27.0278 0.223999 17.4984 0.223999C7.96891 0.223999 0.243769 7.94914 0.243769 17.4786C0.243769 27.008 7.96891 34.7332 17.4984 34.7332Z" fill="url(#paint0_linear_3_924)"/>
<path d="M23.6065 12.8096C24.3468 12.8096 24.9469 12.2095 24.9469 11.4692C24.9469 10.7289 24.3468 10.1287 23.6065 10.1287C22.8661 10.1287 22.266 10.7289 22.266 11.4692C22.266 12.2095 22.8661 12.8096 23.6065 12.8096Z" fill="white"/>
<path d="M17.6471 11.8477C14.5423 11.8477 12.0162 14.3737 12.0162 17.4785C12.0162 20.5834 14.5423 23.1094 17.6471 23.1094C20.7519 23.1094 23.2779 20.5834 23.2779 17.4785C23.2779 14.3737 20.7519 11.8477 17.6471 11.8477ZM17.6471 21.0855C15.6582 21.0855 14.0401 19.4675 14.0401 17.4785C14.0401 15.4896 15.6582 13.8716 17.6471 13.8716C19.636 13.8716 21.2539 15.4896 21.2539 17.4785C21.2539 19.4675 19.636 21.0855 17.6471 21.0855Z" fill="white"/>
<path d="M22.1173 28.9108H12.9888C9.20179 28.9108 6.12097 25.83 6.12097 22.043V12.9141C6.12097 9.12709 9.20178 6.04633 12.9888 6.04633H22.1173C25.9043 6.04633 28.9855 9.12709 28.9855 12.9141V22.043C28.9855 25.83 25.9043 28.9108 22.1173 28.9108ZM12.9888 8.19737C10.3878 8.19737 8.27202 10.3131 8.27202 12.9141V22.043C8.27202 24.644 10.3878 26.7598 12.9888 26.7598H22.1173C24.7183 26.7598 26.8344 24.644 26.8344 22.043V12.9141C26.8344 10.3131 24.7183 8.19737 22.1173 8.19737H12.9888Z" fill="white"/>
</g>
<defs>
<linearGradient id="paint0_linear_3_924" x1="2.78486" y1="32.1921" x2="40.0738" y2="-5.09681" gradientUnits="userSpaceOnUse">
<stop offset="0.0011" stop-color="#FBE18A"/>
<stop offset="0.2094" stop-color="#FCBB45"/>
<stop offset="0.3765" stop-color="#F75274"/>
<stop offset="0.5238" stop-color="#D53692"/>
<stop offset="0.7394" stop-color="#8F39CE"/>
<stop offset="1" stop-color="#5B4FE9"/>
</linearGradient>
<clipPath id="clip0_3_924">
<rect width="35" height="35" fill="white"/>
</clipPath>
</defs>
</svg>
